<?xml version="1.0" standalone="no"?>
<svg xmlns="http://www.w3.org/2000/svg" viewBox="85 65 330 290">
  <defs>
    <linearGradient id="layer-top" x1="0%" y1="0%" x2="100%" y2="100%">
      <stop offset="0%" stop-color="#C084FC"/>
      <stop offset="100%" stop-color="#7E22CE"/>
    </linearGradient>
    <linearGradient id="layer-mid" x1="0%" y1="0%" x2="100%" y2="100%">
      <stop offset="0%" stop-color="#F472B6"/>
      <stop offset="100%" stop-color="#BE185D"/>
    </linearGradient>
    <linearGradient id="layer-bot" x1="0%" y1="0%" x2="100%" y2="100%">
      <stop offset="0%" stop-color="#6366F1"/>
      <stop offset="100%" stop-color="#312E81"/>
    </linearGradient>
    <filter id="glow">
      <feGaussianBlur stdDeviation="4" result="blur"/>
      <feComposite in="SourceGraphic" in2="blur" operator="over"/>
    </filter>
  </defs>
  <g transform="translate(0, 30)">
    <path d="M 250,290 L 380,220 L 250,150 L 120,220 Z" fill="url(#layer-bot)" opacity="0.6" filter="url(#glow)"/>
    <path d="M 250,250 L 380,180 L 250,110 L 120,180 Z" fill="url(#layer-mid)" opacity="0.8" filter="url(#glow)"/>
    <path d="M 250,210 L 380,140 L 250,70 L 120,140 Z" fill="url(#layer-top)" filter="url(#glow)"/>
    <path d="M 250,210 L 380,140 L 250,70 L 120,140 Z" fill="none" stroke="#7E22CE" stroke-width="2" opacity="0.4"/>
    <path d="M 250,110 Q 250,140 220,140 Q 250,140 250,170 Q 250,140 280,140 Q 250,140 250,110 Z" fill="#FFFFFF"/>
  </g>
</svg>
